<svg width="24" height="24" viewBox="0 0 24 24" fill="none" xmlns="http://www.w3.org/2000/svg">
<path fill-rule="evenodd" clip-rule="evenodd" d="M13.3467 12.2849L17.3515 16.2898C17.6444 16.5827 17.6444 17.0575 17.3515 17.3504C17.0586 17.6433 16.5837 17.6433 16.2909 17.3504L12.286 13.3456L8.28033 17.3513C7.98744 17.6442 7.51256 17.6442 7.21967 17.3513C6.92678 17.0584 6.92678 16.5835 7.21967 16.2906L11.2254 12.2849L7.21978 8.27935C6.92689 7.98646 6.92689 7.51159 7.21978 7.21869C7.51268 6.9258 7.98755 6.9258 8.28044 7.21869L12.286 11.2243L16.2907 7.21956C16.5836 6.92667 17.0585 6.92667 17.3514 7.21956C17.6443 7.51245 17.6443 7.98733 17.3514 8.28022L13.3467 12.2849Z" fill="#CC0F41"/>
</svg>
